HIERARCHY
ROOT Hips
{
  OFFSET 5.72205e-005 65.662 3.42586
  CHANNELS 6 Xposition Yposition Zposition Zrotation Xrotation Yrotation
  JOINT Chest
  {
    OFFSET 0 8.7983 -4.7612
    CHANNELS 6 Xposition Yposition Zposition Zrotation Xrotation Yrotation
    JOINT Chest2
    {
      OFFSET 0 8.0291 0.4195
      CHANNELS 6 Xposition Yposition Zposition Zrotation Xrotation Yrotation
      JOINT Chest3
      {
        OFFSET 0 9.9351 -2.2114
        CHANNELS 6 Xposition Yposition Zposition Zrotation Xrotation Yrotation
        JOINT Neck
        {
          OFFSET 0 22.3885 -0.4656
          CHANNELS 6 Xposition Yposition Zposition Zrotation Xrotation Yrotation
          JOINT Head
          {
            OFFSET -0.0001 12.643 3.4389
            CHANNELS 6 Xposition Yposition Zposition Zrotation Xrotation Yrotation
            End Site
            {
              OFFSET 0.0001 17.6655 0.5274
            }
          }
        }
        JOINT LeftCollar
        {
          OFFSET 2.2603 21.606 7.4023
          CHANNELS 6 Xposition Yposition Zposition Zrotation Xrotation Yrotation
          JOINT LeftShoulder
          {
            OFFSET 13.5163 -1.1332 -5.0146
            CHANNELS 6 Xposition Yposition Zposition Zrotation Xrotation Yrotation
            JOINT LeftElbow
            {
              OFFSET -0.0995 -28.05 -0.2431
              CHANNELS 6 Xposition Yposition Zposition Zrotation Xrotation Yrotation
              JOINT LeftWrist
              {
                OFFSET 0.0679 -23.3996 -0.1402
                CHANNELS 6 Xposition Yposition Zposition Zrotation Xrotation Yrotation
                JOINT LeftFinger1
                {
                  OFFSET 0.7932 -9.069 2.5189
                  CHANNELS 6 Xposition Yposition Zposition Zrotation Xrotation Yrotation
                  JOINT LeftFinger11
                  {
                    OFFSET -0.8272 -3.3923 0.5977
                    CHANNELS 6 Xposition Yposition Zposition Zrotation Xrotation Yrotation
                    JOINT LeftFinger12
                    {
                      OFFSET -0.5649 -2.3158 0.4082
                      CHANNELS 6 Xposition Yposition Zposition Zrotation Xrotation Yrotation
                      End Site
                      {
                        OFFSET -0.4919 -1.6479 0.2673
                      }
                    }
                  }
                }
                JOINT LeftFinger2
                {
                  OFFSET 0.9159 -9.2044 0.2193
                  CHANNELS 6 Xposition Yposition Zposition Zrotation Xrotation Yrotation
                  JOINT LeftFinger21
                  {
                    OFFSET 0.0117 -4.1944 -0.0248
                    CHANNELS 6 Xposition Yposition Zposition Zrotation Xrotation Yrotation
                    JOINT LeftFinger22
                    {
                      OFFSET 0.0071 -2.3249 -0.0142
                      CHANNELS 6 Xposition Yposition Zposition Zrotation Xrotation Yrotation
                      End Site
                      {
                        OFFSET -0.1475 -2.0882 0.0028
                      }
                    }
                  }
                }
                JOINT LeftFinger3
                {
                  OFFSET 0.6113 -8.7231 -2.0637
                  CHANNELS 6 Xposition Yposition Zposition Zrotation Xrotation Yrotation
                  JOINT LeftFinger31
                  {
                    OFFSET -0.1927 -3.8059 -0.2383
                    CHANNELS 6 Xposition Yposition Zposition Zrotation Xrotation Yrotation
                    JOINT LeftFinger32
                    {
                      OFFSET -0.1091 -2.1688 -0.1362
                      CHANNELS 6 Xposition Yposition Zposition Zrotation Xrotation Yrotation
                      End Site
                      {
                        OFFSET -0.2358 -1.9176 -0.0906
                      }
                    }
                  }
                }
                JOINT LeftFinger4
                {
                  OFFSET -0.6151 -8.0947 -3.5641
                  CHANNELS 6 Xposition Yposition Zposition Zrotation Xrotation Yrotation
                  JOINT LeftFinger41
                  {
                    OFFSET -0.4882 -2.341 -0.6462
                    CHANNELS 6 Xposition Yposition Zposition Zrotation Xrotation Yrotation
                    JOINT LeftFinger42
                    {
                      OFFSET -0.3575 -1.7167 -0.4742
                      CHANNELS 6 Xposition Yposition Zposition Zrotation Xrotation Yrotation
                      End Site
                      {
                        OFFSET -0.4187 -1.5237 -0.3496
                      }
                    }
                  }
                }
                JOINT LeftFinger0
                {
                  OFFSET -1.42 -1.8761 1.4223
                  CHANNELS 6 Xposition Yposition Zposition Zrotation Xrotation Yrotation
                  JOINT LeftFinger01
                  {
                    OFFSET -1.1471 -3.4929 2.6334
                    CHANNELS 6 Xposition Yposition Zposition Zrotation Xrotation Yrotation
                    JOINT LeftFinger02
                    {
                      OFFSET -0.823 -2.3 1.6571
                      CHANNELS 6 Xposition Yposition Zposition Zrotation Xrotation Yrotation
                      End Site
                      {
                        OFFSET -0.5822 -1.6914 1.1582
                      }
                    }
                  }
                }
              }
            }
          }
        }
        JOINT RightCollar
        {
          OFFSET -2.2603 21.606 7.4023
          CHANNELS 6 Xposition Yposition Zposition Zrotation Xrotation Yrotation
          JOINT RightShoulder
          {
            OFFSET -13.5187 -1.1334 -5.0155
            CHANNELS 6 Xposition Yposition Zposition Zrotation Xrotation Yrotation
            JOINT RightElbow
            {
              OFFSET 0.0994 -28.0499 -0.2431
              CHANNELS 6 Xposition Yposition Zposition Zrotation Xrotation Yrotation
              JOINT RightWrist
              {
                OFFSET -0.0679 -23.3996 -0.1402
                CHANNELS 6 Xposition Yposition Zposition Zrotation Xrotation Yrotation
                JOINT RightFinger1
                {
                  OFFSET -0.7932 -9.0691 2.5189
                  CHANNELS 6 Xposition Yposition Zposition Zrotation Xrotation Yrotation
                  JOINT RightFinger11
                  {
                    OFFSET 0.8272 -3.3923 0.5977
                    CHANNELS 6 Xposition Yposition Zposition Zrotation Xrotation Yrotation
                    JOINT RightFinger12
                    {
                      OFFSET 0.565 -2.3158 0.4082
                      CHANNELS 6 Xposition Yposition Zposition Zrotation Xrotation Yrotation
                      End Site
                      {
                        OFFSET 0.4919 -1.6479 0.2673
                      }
                    }
                  }
                }
                JOINT RightFinger2
                {
                  OFFSET -0.916 -9.2044 0.2193
                  CHANNELS 6 Xposition Yposition Zposition Zrotation Xrotation Yrotation
                  JOINT RightFinger21
                  {
                    OFFSET -0.0117 -4.1944 -0.0248
                    CHANNELS 6 Xposition Yposition Zposition Zrotation Xrotation Yrotation
                    JOINT RightFinger22
                    {
                      OFFSET -0.0071 -2.3249 -0.0142
                      CHANNELS 6 Xposition Yposition Zposition Zrotation Xrotation Yrotation
                      End Site
                      {
                        OFFSET 0.1475 -2.0882 0.0028
                      }
                    }
                  }
                }
                JOINT RightFinger3
                {
                  OFFSET -0.6113 -8.7231 -2.0637
                  CHANNELS 6 Xposition Yposition Zposition Zrotation Xrotation Yrotation
                  JOINT RightFinger31
                  {
                    OFFSET 0.1927 -3.8059 -0.2383
                    CHANNELS 6 Xposition Yposition Zposition Zrotation Xrotation Yrotation
                    JOINT RightFinger32
                    {
                      OFFSET 0.1091 -2.1688 -0.1362
                      CHANNELS 6 Xposition Yposition Zposition Zrotation Xrotation Yrotation
                      End Site
                      {
                        OFFSET 0.2358 -1.9176 -0.0906
                      }
                    }
                  }
                }
                JOINT RightFinger4
                {
                  OFFSET 0.6151 -8.0947 -3.564
                  CHANNELS 6 Xposition Yposition Zposition Zrotation Xrotation Yrotation
                  JOINT RightFinger41
                  {
                    OFFSET 0.4882 -2.341 -0.6462
                    CHANNELS 6 Xposition Yposition Zposition Zrotation Xrotation Yrotation
                    JOINT RightFinger42
                    {
                      OFFSET 0.3574 -1.7166 -0.4742
                      CHANNELS 6 Xposition Yposition Zposition Zrotation Xrotation Yrotation
                      End Site
                      {
                        OFFSET 0.4187 -1.5237 -0.3496
                      }
                    }
                  }
                }
                JOINT RightFinger0
                {
                  OFFSET 1.4199 -1.8761 1.4221
                  CHANNELS 6 Xposition Yposition Zposition Zrotation Xrotation Yrotation
                  JOINT RightFinger01
                  {
                    OFFSET 1.1472 -3.4929 2.6336
                    CHANNELS 6 Xposition Yposition Zposition Zrotation Xrotation Yrotation
                    JOINT RightFinger02
                    {
                      OFFSET 0.8229 -2.3 1.6571
                      CHANNELS 6 Xposition Yposition Zposition Zrotation Xrotation Yrotation
                      End Site
                      {
                        OFFSET 0.5822 -1.6914 1.1582
                      }
                    }
                  }
                }
              }
            }
          }
        }
      }
    }
  }
  JOINT RightHip
  {
    OFFSET -9.412 3.9771 -0.7758
    CHANNELS 6 Xposition Yposition Zposition Zrotation Xrotation Yrotation
    JOINT RightKnee
    {
      OFFSET -0.7531 -40.938 0
      CHANNELS 6 Xposition Yposition Zposition Zrotation Xrotation Yrotation
      JOINT RightAnkle
      {
        OFFSET 0 -40.1986 0
        CHANNELS 6 Xposition Yposition Zposition Zrotation Xrotation Yrotation
        JOINT RightToe
        {
          OFFSET 0 -4.4182 9.239
          CHANNELS 6 Xposition Yposition Zposition Zrotation Xrotation Yrotation
          End Site
          {
            OFFSET 0 0 6.1981
          }
        }
      }
    }
  }
  JOINT LeftHip
  {
    OFFSET 9.4119 3.9773 -0.7758
    CHANNELS 6 Xposition Yposition Zposition Zrotation Xrotation Yrotation
    JOINT LeftKnee
    {
      OFFSET 0.7532 -40.9383 0
      CHANNELS 6 Xposition Yposition Zposition Zrotation Xrotation Yrotation
      JOINT LeftAnkle
      {
        OFFSET 0 -40.1986 0
        CHANNELS 6 Xposition Yposition Zposition Zrotation Xrotation Yrotation
        JOINT LeftToe
        {
          OFFSET 0 -4.4182 9.239
          CHANNELS 6 Xposition Yposition Zposition Zrotation Xrotation Yrotation
          End Site
          {
            OFFSET 0 0 6.1981
          }
        }
      }
    }
  }
}
MOTION
Frames:	4
Frame Time:	0.0333333
5.72205e-005 65.662 3.42586 0 0 -0 0 8.7983 -4.7612 0 0 -0 0 8.0291 0.4195 0 0 -0 0 9.9351 -2.2114 0 0 -0 0 22.3885 -0.4656 0 0 -0 -0.0001 12.643 3.4389 0 0 -0 2.2603 21.606 7.4023 0 0 -12.5014 13.5163 -1.1332 -5.0146 88.1196 14.2451 10.6914 -0.0995 -28.05 -0.2431 -0.00160068 -0.00239207 0.000740045 0.0679 -23.3996 -0.1402 -8.4365e-005 7.00714e-005 -9.52055e-007 0.7932 -9.069 2.5189 9.93923e-017 -1.98785e-016 -1.59028e-015 -0.8272 -3.3923 0.5977 9.93923e-017 -5.96354e-016 -1.59028e-015 -0.5649 -2.3158 0.4082 -9.93923e-017 -5.96354e-016 -1.59028e-015 0.9159 -9.2044 0.2193 9.93923e-017 -1.98785e-016 -1.59028e-015 0.0117 -4.1944 -0.0248 -0.0128176 0.00232552 8.52707e-005 0.0071 -2.3249 -0.0142 9.93923e-017 5.96354e-016 -0 0.6113 -8.7231 -2.0637 9.93923e-017 -1.98785e-016 -1.59028e-015 -0.1927 -3.8059 -0.2383 -0.0160551 0.00299681 0.000857156 -0.1091 -2.1688 -0.1362 -2.48481e-016 0 3.18055e-015 -0.6151 -8.0947 -3.5641 9.93923e-017 -1.98785e-016 -1.59028e-015 -0.4882 -2.341 -0.6462 -0.0125865 0.0031206 0.00282719 -0.3575 -1.7167 -0.4742 0 1.98785e-016 -0 -1.42 -1.8761 1.4223 9.93923e-017 -1.98785e-016 -1.59028e-015 -1.1471 -3.4929 2.6334 9.93923e-017 -5.96354e-016 -1.59028e-015 -0.823 -2.3 1.6571 -9.93923e-017 -5.96354e-016 -1.59028e-015 -2.2603 21.606 7.4023 -0.865644 0.16582 7.03859 -13.5187 -1.1334 -5.0155 -88.0329 10.2057 -10.5567 0.0994 -28.0499 -0.2431 0.0015593 -0.00248883 -0.000788628 -0.0679 -23.3996 -0.1402 7.87605e-005 4.10553e-005 1.24965e-005 -0.7932 -9.0691 2.5189 -3.97569e-016 -7.95139e-016 3.18055e-015 0.8272 -3.3923 0.5977 -1.98785e-016 -3.97569e-016 3.18055e-015 0.565 -2.3158 0.4082 -1.98785e-016 0 3.18055e-015 -0.916 -9.2044 0.2193 -3.97569e-016 -7.95139e-016 3.18055e-015 -0.0117 -4.1944 -0.0248 0.0129473 0.00231697 -8.70038e-005 -0.0071 -2.3249 -0.0142 9.93923e-017 -7.95139e-016 1.59028e-015 -0.6113 -8.7231 -2.0637 -3.97569e-016 -7.95139e-016 3.18055e-015 0.1927 -3.8059 -0.2383 0.0163314 0.00303369 -0.000872333 0.1091 -2.1688 -0.1362 3.97569e-016 7.95139e-016 -3.18055e-015 0.6151 -8.0947 -3.564 -3.97569e-016 -7.95139e-016 3.18055e-015 0.4882 -2.341 -0.6462 0.0145763 0.00367772 -0.00326275 0.3574 -1.7166 -0.4742 9.93923e-017 -3.97569e-016 -0 1.4199 -1.8761 1.4221 -3.97569e-016 -7.95139e-016 3.18055e-015 1.1472 -3.4929 2.6336 -1.98785e-016 -3.97569e-016 3.18055e-015 0.8229 -2.3 1.6571 -1.98785e-016 0 3.18055e-015 -9.412 3.9771 -0.7758 3.42482 1.32465 -0.0626183 -0.7531 -40.938 0 0.000117508 0.717283 0.000978199 0 -40.1986 0 -3.4257 -2.04197 -0.0604716 8.88178e-016 -4.4182 9.239 6.47761e-025 0 -0 9.4119 3.9773 -0.7758 -3.42483 1.34017 0.0627307 0.7532 -40.9383 -2.22045e-016 -0.000193936 0.682302 -0.0013703 -8.88179e-016 -40.1986 0 3.42574 -2.02253 0.0595886 -8.88178e-016 -4.4182 9.239 -8.45714e-024 0 -7.40531e-025 
6.26721 -1.1801 -46.8225 89.996 -75.0026 -0.00306175 -2.22045e-016 8.7983 -4.7612 -3.09242 -4.7087 -0.997802 8.88179e-016 8.0291 0.4195 -6.29873 -9.35556 -2.26135 -1.77636e-015 9.9351 -2.2114 -6.29874 -9.35559 -2.26136 0 22.3885 -0.4656 8.9983 -1.98038 0.311951 -0.0001 12.643 3.4389 -3.63721e-006 14.9982 -8.07712e-006 2.2603 21.606 7.4023 -5.78159 -7.38983 -13.94 13.5163 -1.1332 -5.0146 36.0845 -20.243 48.2025 -0.0995 -28.05 -0.2431 -55.3215 -1.51696 -3.71803 0.0679 -23.3996 -0.1402 -41.9543 7.07972 4.77724 0.7932 -9.069 2.5189 -3.01655e-006 8.62875e-007 4.03741e-006 -0.8272 -3.3923 0.5977 -4.77083e-015 -4.08732e-006 -6.36111e-015 -0.5649 -2.3158 0.4082 -1.59028e-015 7.95139e-015 -0 0.9159 -9.2044 0.2193 -3.01655e-006 8.62875e-007 4.03741e-006 0.0117 -4.1944 -0.0248 -0.0128529 0.00233358 8.47773e-005 0.0071 -2.3249 -0.0142 1.59028e-015 -6.36111e-015 -6.36111e-015 0.6113 -8.7231 -2.0637 -3.01655e-006 8.62875e-007 4.03741e-006 -0.1927 -3.8059 -0.2383 -0.0160814 0.00300979 0.000861838 -0.1091 -2.1688 -0.1362 -1.76556e-030 -3.18055e-014 -3.18055e-015 -0.6151 -8.0947 -3.5641 -3.01655e-006 8.62875e-007 4.03741e-006 -0.4882 -2.341 -0.6462 -0.0125806 0.00312085 0.00283466 -0.3575 -1.7167 -0.4742 3.18055e-015 1.59028e-015 6.36111e-015 -1.42 -1.8761 1.4223 -3.01655e-006 8.62875e-007 4.03741e-006 -1.1471 -3.4929 2.6334 -4.77083e-015 -4.08732e-006 -6.36111e-015 -0.823 -2.3 1.6571 -1.59028e-015 7.95139e-015 -0 -2.2603 21.606 7.4023 20.4028 5.07189 13.9982 -13.5187 -1.1334 -5.0155 -31.6513 -17.1242 -19.8534 0.0994 -28.0499 -0.2431 28.7776 -47.3206 -58.2838 -0.0679 -23.3996 -0.1402 57.4609 39.6717 15.6023 -0.7932 -9.0691 2.5189 -1.90325e-006 -8.42632e-007 -8.86874e-007 0.8272 -3.3923 0.5977 1.12054e-005 2.73666e-006 2.61107e-006 0.565 -2.3158 0.4082 3.18055e-015 1.59028e-015 3.18055e-015 -0.916 -9.2044 0.2193 -1.90325e-006 -8.42632e-007 -8.86874e-007 -0.0117 -4.1944 -0.0248 0.0129231 0.00230924 -8.41996e-005 -0.0071 -2.3249 -0.0142 -2.32012e-007 -8.59264e-007 -1.41602e-006 -0.6113 -8.7231 -2.0637 -1.90325e-006 -8.42632e-007 -8.86874e-007 0.1927 -3.8059 -0.2383 0.0163519 0.00303722 -0.000881739 0.1091 -2.1688 -0.1362 -1.59028e-015 -3.18055e-015 -0 0.6151 -8.0947 -3.564 -1.90325e-006 -8.42632e-007 -8.86874e-007 0.4882 -2.341 -0.6462 0.0145935 0.00367989 -0.00326268 0.3574 -1.7166 -0.4742 2.38542e-015 -6.36111e-015 -0 1.4199 -1.8761 1.4221 -1.90325e-006 -8.42632e-007 -8.86874e-007 1.1472 -3.4929 2.6336 1.12054e-005 2.73666e-006 2.61107e-006 0.8229 -2.3 1.6571 3.18055e-015 1.59028e-015 3.18055e-015 -9.412 3.9771 -0.7758 11.1459 -17.6598 -15.7527 -0.7531 -40.938 4.44089e-016 -92.3688 62.361 64.4654 -8.88179e-016 -40.1986 0 13.2543 4.01877 5.75431 1.77636e-015 -4.4182 9.239 -5.26935e-007 1.21015e-006 -1.65793e-006 9.4119 3.9773 -0.7758 20.174 -34.2908 23.8047 0.7532 -40.9383 -3.55271e-015 -66.6701 42.1002 41.882 3.55271e-015 -40.1986 8.88178e-016 21.2758 20.6675 3.01877 -1.33227e-015 -4.4182 9.239 -9.87597e-006 8.48549e-007 -1.29046e-006 
5.88404 -1.1814 -46.8657 89.9997 -76.4382 -0.000247582 0 8.7983 -4.7612 -3.08075 -4.24651 -0.991026 8.88178e-016 8.0291 0.4195 -6.26047 -8.43268 -2.21924 -1.77636e-015 9.9351 -2.2114 -6.2605 -8.4327 -2.21924 3.55271e-015 22.3885 -0.4656 8.98416 -2.19619 0.343666 -0.0001 12.643 3.4389 -6.98676e-006 14.2977 1.25699e-006 2.2603 21.606 7.4023 -5.35648 -8.18428 -13.9745 13.5163 -1.1332 -5.0146 36.0845 -20.243 48.2024 -0.0995 -28.05 -0.2431 -55.3215 -1.51698 -3.71801 0.0679 -23.3996 -0.1402 -41.9995 6.62994 4.80909 0.7932 -9.069 2.5189 -4.77083e-015 -1.59028e-015 -2.22639e-014 -0.8272 -3.3923 0.5977 -3.53113e-031 -3.18055e-015 -6.36111e-015 -0.5649 -2.3158 0.4082 -1.59028e-015 7.95139e-015 -6.36111e-015 0.9159 -9.2044 0.2193 -4.77083e-015 -1.59028e-015 -2.22639e-014 0.0117 -4.1944 -0.0248 -0.0127737 0.00232614 9.74973e-005 0.0071 -2.3249 -0.0142 -3.18055e-015 3.18055e-015 -3.18055e-015 0.6113 -8.7231 -2.0637 -4.77083e-015 -1.59028e-015 -2.22639e-014 -0.1927 -3.8059 -0.2383 -0.0160607 0.00300928 0.000866868 -0.1091 -2.1688 -0.1362 1.59028e-015 -3.18055e-015 -0 -0.6151 -8.0947 -3.5641 -4.77083e-015 -1.59028e-015 -2.22639e-014 -0.4882 -2.341 -0.6462 -0.0126214 0.00313801 0.00283861 -0.3575 -1.7167 -0.4742 3.18055e-015 4.77083e-015 6.36111e-015 -1.42 -1.8761 1.4223 -4.77083e-015 -1.59028e-015 -2.22639e-014 -1.1471 -3.4929 2.6334 -3.53113e-031 -3.18055e-015 -6.36111e-015 -0.823 -2.3 1.6571 -1.59028e-015 7.95139e-015 -6.36111e-015 -2.2603 21.606 7.4023 20.4028 5.07195 13.9982 -13.5187 -1.1334 -5.0155 -31.6513 -17.1242 -19.8534 0.0994 -28.0499 -0.2431 28.7777 -47.3205 -58.2838 -0.0679 -23.3996 -0.1402 57.4609 39.6717 15.6023 -0.7932 -9.0691 2.5189 7.60837e-008 -4.55611e-007 -3.23163e-006 0.8272 -3.3923 0.5977 4.24027e-007 2.92569e-007 -1.76483e-006 0.565 -2.3158 0.4082 -1.59028e-015 -3.18055e-015 -0 -0.916 -9.2044 0.2193 7.60837e-008 -4.55611e-007 -3.23163e-006 -0.0117 -4.1944 -0.0248 0.0129473 0.00231178 -8.28158e-005 -0.0071 -2.3249 -0.0142 -1.49587e-005 -4.60306e-007 -5.21244e-006 -0.6113 -8.7231 -2.0637 7.60837e-008 -4.55611e-007 -3.23163e-006 0.1927 -3.8059 -0.2383 0.0163062 0.00302813 -0.000869702 0.1091 -2.1688 -0.1362 -3.18055e-015 -2.54444e-014 -3.18055e-015 0.6151 -8.0947 -3.564 7.60837e-008 -4.55611e-007 -3.23163e-006 0.4882 -2.341 -0.6462 0.0145797 0.00367667 -0.00326174 0.3574 -1.7166 -0.4742 -7.95139e-016 0 -0 1.4199 -1.8761 1.4221 7.60837e-008 -4.55611e-007 -3.23163e-006 1.1472 -3.4929 2.6336 4.24027e-007 2.92569e-007 -1.76483e-006 0.8229 -2.3 1.6571 -1.59028e-015 -3.18055e-015 -0 -9.412 3.9771 -0.7758 11.016 -15.8856 -16.0053 -0.7531 -40.938 0 -91.3025 62.4461 63.5341 1.77636e-015 -40.1986 0 13.2358 4.04931 5.76992 0 -4.4182 9.239 -5.24446e-008 -1.52627e-006 -8.38073e-007 9.4119 3.9773 -0.7758 19.4493 -33.01 22.7494 0.7532 -40.9383 0 -66.3549 42.2907 41.8183 -4.44089e-016 -40.1986 8.88179e-016 20.7954 20.4329 3.24709 -4.44089e-016 -4.4182 9.239 9.24617e-006 -3.33048e-006 -6.59772e-006 
5.50153 -1.18247 -46.914 90.0043 -77.8774 0.0034638 0 8.7983 -4.7612 -3.06914 -3.78323 -0.984418 8.88178e-016 8.0291 0.4195 -6.22325 -7.50751 -2.17796 -1.77636e-015 9.9351 -2.2114 -6.22326 -7.50752 -2.17797 3.55271e-015 22.3885 -0.4656 8.97009 -2.41211 0.375339 -0.0001 12.643 3.4389 1.00689e-005 13.5955 3.43008e-006 2.2603 21.606 7.4023 -4.93055 -8.97981 -14.0031 13.5163 -1.1332 -5.0146 36.0845 -20.243 48.2025 -0.0995 -28.05 -0.2431 -55.3215 -1.51697 -3.71804 0.0679 -23.3996 -0.1402 -42.0443 6.17997 4.84058 0.7932 -9.069 2.5189 -1.7269e-005 7.11022e-006 -5.62293e-006 -0.8272 -3.3923 0.5977 3.18055e-015 -4.77083e-015 1.27222e-014 -0.5649 -2.3158 0.4082 -1.59028e-015 1.59028e-015 -3.18055e-015 0.9159 -9.2044 0.2193 -1.7269e-005 7.11022e-006 -5.62293e-006 0.0117 -4.1944 -0.0248 -0.012783 0.00231133 9.47908e-005 0.0071 -2.3249 -0.0142 -3.18055e-015 1.59028e-015 6.36111e-015 0.6113 -8.7231 -2.0637 -1.7269e-005 7.11022e-006 -5.62293e-006 -0.1927 -3.8059 -0.2383 -0.0160376 0.00298915 0.000860331 -0.1091 -2.1688 -0.1362 1.59028e-015 -1.59028e-015 -6.36111e-015 -0.6151 -8.0947 -3.5641 -1.7269e-005 7.11022e-006 -5.62293e-006 -0.4882 -2.341 -0.6462 -0.0124837 0.00309192 0.00280369 -0.3575 -1.7167 -0.4742 1.59028e-015 0 1.27222e-014 -1.42 -1.8761 1.4223 -1.7269e-005 7.11022e-006 -5.62293e-006 -1.1471 -3.4929 2.6334 3.18055e-015 -4.77083e-015 1.27222e-014 -0.823 -2.3 1.6571 -1.59028e-015 1.59028e-015 -3.18055e-015 -2.2603 21.606 7.4023 20.4028 5.07194 13.9982 -13.5187 -1.1334 -5.0155 -31.6513 -17.1242 -19.8534 0.0994 -28.0499 -0.2431 28.7777 -47.3205 -58.2838 -0.0679 -23.3996 -0.1402 57.461 39.6717 15.6023 -0.7932 -9.0691 2.5189 2.38542e-015 -6.36111e-015 3.18055e-015 0.8272 -3.3923 0.5977 -3.4081e-007 -1.45855e-007 -1.45631e-006 0.565 -2.3158 0.4082 -3.18055e-015 -4.77083e-015 -6.36111e-015 -0.916 -9.2044 0.2193 2.38542e-015 -6.36111e-015 3.18055e-015 -0.0117 -4.1944 -0.0248 0.0129735 0.00232087 -8.475e-005 -0.0071 -2.3249 -0.0142 4.77083e-015 3.18055e-015 -3.18055e-015 -0.6113 -8.7231 -2.0637 2.38542e-015 -6.36111e-015 3.18055e-015 0.1927 -3.8059 -0.2383 0.016382 0.00304848 -0.000876064 0.1091 -2.1688 -0.1362 -3.18055e-015 6.36111e-015 -0 0.6151 -8.0947 -3.564 2.38542e-015 -6.36111e-015 3.18055e-015 0.4882 -2.341 -0.6462 0.0145685 0.00367468 -0.0032653 0.3574 -1.7166 -0.4742 4.77083e-015 3.18055e-015 -9.54166e-015 1.4199 -1.8761 1.4221 2.38542e-015 -6.36111e-015 3.18055e-015 1.1472 -3.4929 2.6336 -3.4081e-007 -1.45855e-007 -1.45631e-006 0.8229 -2.3 1.6571 -3.18055e-015 -4.77083e-015 -6.36111e-015 -9.412 3.9771 -0.7758 10.8952 -14.1035 -16.253 -0.7531 -40.938 8.88178e-016 -90.2307 62.5231 62.5972 0 -40.1986 0 13.2176 4.07961 5.78573 0 -4.4182 9.239 -6.83977e-006 -4.49091e-007 -5.34998e-007 9.4119 3.9773 -0.7758 18.761 -31.7143 21.7253 0.7532 -40.9383 0 -66.0374 42.4811 41.7521 -8.88178e-016 -40.1986 -1.77636e-015 20.3158 20.1968 3.47312 8.88178e-016 -4.4182 9.239 7.26168e-006 -1.90304e-006 -6.70755e-007 
